<?xml version="1.0" encoding="UTF-8"?>
<svg xmlns="http://www.w3.org/2000/svg" viewBox="0 0 1024 1024">
  <defs>
    <linearGradient id="base" x1="176" y1="120" x2="880" y2="930" gradientUnits="userSpaceOnUse">
      <stop offset="0" stop-color="#18212b"/>
      <stop offset="0.56" stop-color="#10161e"/>
      <stop offset="1" stop-color="#0a0f15"/>
    </linearGradient>
    <linearGradient id="edge" x1="184" y1="128" x2="850" y2="868" gradientUnits="userSpaceOnUse">
      <stop offset="0" stop-color="#7eddf5" stop-opacity="0.92"/>
      <stop offset="0.62" stop-color="#22b8e8" stop-opacity="0.62"/>
      <stop offset="1" stop-color="#f0b66a" stop-opacity="0.34"/>
    </linearGradient>
    <radialGradient id="glow" cx="50%" cy="40%" r="62%">
      <stop offset="0" stop-color="#22b8e8" stop-opacity="0.2"/>
      <stop offset="0.6" stop-color="#22b8e8" stop-opacity="0.06"/>
      <stop offset="1" stop-color="#22b8e8" stop-opacity="0"/>
    </radialGradient>
    <filter id="softShadow" x="-20%" y="-20%" width="140%" height="140%">
      <feDropShadow dx="0" dy="18" stdDeviation="18" flood-color="#000810" flood-opacity="0.45"/>
    </filter>
  </defs>
  <rect x="58" y="58" width="908" height="908" rx="202" fill="url(#base)"/>
  <rect x="58" y="58" width="908" height="908" rx="202" fill="url(#glow)"/>
  <rect x="80" y="80" width="864" height="864" rx="184" fill="none" stroke="url(#edge)" stroke-width="24"/>
  <path d="M185 286H839M185 512H839M185 738H839M286 185V839M512 185V839M738 185V839" stroke="#87a5b5" stroke-width="6" opacity="0.08"/>
  <g filter="url(#softShadow)" stroke-linecap="round" stroke-linejoin="round">
    
    <path d="M356 274L670 236L812 486L602 774L284 674L212 404Z" fill="#131d27" stroke="#22b8e8" stroke-width="28"/>
    <path d="M356 274L602 774M670 236L602 774M212 404L812 486M284 674L670 236" stroke="#87a5b5" stroke-width="18" opacity="0.6"/>
    <circle cx="514" cy="506" r="52" fill="#f4fbff"/>
    <path d="M514 506L178 250M514 506L850 292M514 506L870 724M514 506L206 792" stroke="#7eddf5" stroke-width="20" opacity="0.72"/>
    <circle cx="178" cy="250" r="18" fill="#22b8e8"/>
    <circle cx="850" cy="292" r="18" fill="#22b8e8"/>
    <circle cx="870" cy="724" r="18" fill="#22b8e8"/>
    <circle cx="206" cy="792" r="18" fill="#22b8e8"/>
  
  </g>
</svg>
